<svg xmlns="http://www.w3.org/2000/svg" xmlns:xlink="http://www.w3.org/1999/xlink" viewBox="0 0 167.09 329.3"><defs><style>.cls-1{stroke:#8ac64e;fill:url(#linear-gradient);}.cls-1,.cls-2{stroke-miterlimit:10;}.cls-2{stroke:#85c441;fill:url(#linear-gradient-2);}</style><linearGradient id="linear-gradient" x1="0.5" y1="155.2" x2="126.87" y2="155.2" gradientUnits="userSpaceOnUse"><stop offset="0" stop-color="#79c143"/><stop offset="1" stop-color="#b4d334"/></linearGradient><linearGradient id="linear-gradient-2" x1="166.59" y1="205.31" x2="60.46" y2="205.31" xlink:href="#linear-gradient"/></defs><g id="Layer_2" data-name="Layer 2"><g id="Layer_1-2" data-name="Layer 1"><path class="cls-1" d="M79.14,1.31C92,73.53,21.36,116.2,2.69,182.86c-10.66,53.78,21,88.3,21,88.3a205.06,205.06,0,0,0,54.82,37.92C55.43,278,44.77,239.16,49.21,209.23c0,0,4.45-22.52,36-52.45,31.87-23.4,41.08-56,41.08-56C130.69,62,110.19,28.38,79.14,1.31Z"/><path class="cls-2" d="M111.29,327.9c-10.5-23.29-13.34-47.48-11.71-59.11.67-1.81,2.08-14.09,34.37-8.74,21,1.33,15.85-17.93,15.85-17.93-.15-3.55,6.35-5.48,6.28-8.59,0-1.35.15-3.23-4.35-5,12.46-2.35,3.39-7.08,2.46-11.68-1.61-11.5,12.73-5.63,12.39-13.28-4-7.27-24.23-38.45-15.59-55.78,4.11-16.93,2.09-17.52,2.07-27.55-2.62-17.23-15.4-33.08-21.48-37.49,5.17,20.47.59,39.23-11.85,56.6L88,172.2c-16.44,14.23-26.12,32.6-27.56,56-.28,21.26,4.22,39.56,13.63,54.81C82.77,300.24,95.1,317,111.29,327.9Z"/></g></g></svg>